<?xml version="1.0" encoding="UTF-8" standalone="no"?>
<!DOCTYPE svg PUBLIC "-//W3C//DTD SVG 1.1//EN"
 "http://www.w3.org/Graphics/SVG/1.1/DTD/svg11.dtd">
<!-- Generated by graphviz version 2.44.1 (20200629.0846)
 -->
<!-- Title: ChildrensSocialCarePlacement Pages: 1 -->
<svg width="552pt" height="432pt"
 viewBox="0.00 0.00 552.10 431.60" xmlns="http://www.w3.org/2000/svg" xmlns:xlink="http://www.w3.org/1999/xlink">
<g id="graph0" class="graph" transform="scale(1 1) rotate(0) translate(28.8 402.8)">
<title>ChildrensSocialCarePlacement</title>
<polygon fill="white" stroke="transparent" points="-28.8,28.8 -28.8,-402.8 523.3,-402.8 523.3,28.8 -28.8,28.8"/>
<!-- m_Child -->
<g id="node1" class="node">
<title>m_Child</title>
<path fill="none" stroke="black" d="M189.5,-206C189.5,-206 309.5,-206 309.5,-206 315.5,-206 321.5,-212 321.5,-218 321.5,-218 321.5,-237 321.5,-237 321.5,-243 315.5,-249 309.5,-249 309.5,-249 189.5,-249 189.5,-249 183.5,-249 177.5,-243 177.5,-237 177.5,-237 177.5,-218 177.5,-218 177.5,-212 183.5,-206 189.5,-206"/>
<text text-anchor="start" x="235" y="-236.2" font-family="Arial BoldMT" font-size="11.00">Child</text>
<polyline fill="none" stroke="black" points="177.5,-229 321.5,-229 "/>
<text text-anchor="start" x="184.5" y="-215.5" font-family="ArialMT" font-size="10.00">id </text>
<text text-anchor="start" x="195.5" y="-215.5" font-family="Arial ItalicMT" font-size="10.00" fill="#999999">integer (8) PK</text>
</g>
<!-- m_FosterParent -->
<g id="node3" class="node">
<title>m_FosterParent</title>
<path fill="none" stroke="black" d="M16.5,-199.5C16.5,-199.5 136.5,-199.5 136.5,-199.5 142.5,-199.5 148.5,-205.5 148.5,-211.5 148.5,-211.5 148.5,-243.5 148.5,-243.5 148.5,-249.5 142.5,-255.5 136.5,-255.5 136.5,-255.5 16.5,-255.5 16.5,-255.5 10.5,-255.5 4.5,-249.5 4.5,-243.5 4.5,-243.5 4.5,-211.5 4.5,-211.5 4.5,-205.5 10.5,-199.5 16.5,-199.5"/>
<text text-anchor="start" x="42.5" y="-242.7" font-family="Arial BoldMT" font-size="11.00">FosterParent</text>
<polyline fill="none" stroke="black" points="4.5,-235.5 148.5,-235.5 "/>
<text text-anchor="start" x="11.5" y="-222.5" font-family="ArialMT" font-size="10.00">id </text>
<text text-anchor="start" x="22.5" y="-222.5" font-family="Arial ItalicMT" font-size="10.00" fill="#999999">integer (8) PK</text>
<text text-anchor="start" x="11.5" y="-209.5" font-family="ArialMT" font-size="10.00">user_id </text>
<text text-anchor="start" x="46.5" y="-209.5" font-family="Arial ItalicMT" font-size="10.00" fill="#999999">integer (8) ∗ FK</text>
</g>
<!-- m_Placement -->
<g id="node5" class="node">
<title>m_Placement</title>
<path fill="none" stroke="black" d="M12,-93.5C12,-93.5 141,-93.5 141,-93.5 147,-93.5 153,-99.5 153,-105.5 153,-105.5 153,-150.5 153,-150.5 153,-156.5 147,-162.5 141,-162.5 141,-162.5 12,-162.5 12,-162.5 6,-162.5 0,-156.5 0,-150.5 0,-150.5 0,-105.5 0,-105.5 0,-99.5 6,-93.5 12,-93.5"/>
<text text-anchor="start" x="48.5" y="-149.7" font-family="Arial BoldMT" font-size="11.00">Placement</text>
<polyline fill="none" stroke="black" points="0,-142.5 153,-142.5 "/>
<text text-anchor="start" x="7.5" y="-129" font-family="ArialMT" font-size="10.00">child_id </text>
<text text-anchor="start" x="44.5" y="-129" font-family="Arial ItalicMT" font-size="10.00" fill="#999999">integer (8) ∗ FK</text>
<text text-anchor="start" x="7.5" y="-116" font-family="ArialMT" font-size="10.00">foster_parent_id </text>
<text text-anchor="start" x="80.5" y="-116" font-family="Arial ItalicMT" font-size="10.00" fill="#999999">integer (8) ∗ FK</text>
<text text-anchor="start" x="7.5" y="-103" font-family="ArialMT" font-size="10.00">id </text>
<text text-anchor="start" x="18.5" y="-103" font-family="Arial ItalicMT" font-size="10.00" fill="#999999">integer (8) PK</text>
</g>
<!-- m_Child&#45;&gt;m_Placement -->
<g id="edge3" class="edge">
<title>m_Child&#45;&gt;m_Placement</title>
<path fill="none" stroke="black" d="M212.81,-205.82C192.85,-194.57 167.52,-180.3 144.13,-167.11"/>
<polygon fill="black" stroke="black" points="145.67,-164.37 136.28,-162.69 142.57,-169.85 145.67,-164.37"/>
</g>
<!-- m_PlacementNeed -->
<g id="node6" class="node">
<title>m_PlacementNeed</title>
<path fill="none" stroke="black" d="M194.5,-100C194.5,-100 314.5,-100 314.5,-100 320.5,-100 326.5,-106 326.5,-112 326.5,-112 326.5,-144 326.5,-144 326.5,-150 320.5,-156 314.5,-156 314.5,-156 194.5,-156 194.5,-156 188.5,-156 182.5,-150 182.5,-144 182.5,-144 182.5,-112 182.5,-112 182.5,-106 188.5,-100 194.5,-100"/>
<text text-anchor="start" x="213.5" y="-143.2" font-family="Arial BoldMT" font-size="11.00">PlacementNeed</text>
<polyline fill="none" stroke="black" points="182.5,-136 326.5,-136 "/>
<text text-anchor="start" x="189.5" y="-123" font-family="ArialMT" font-size="10.00">child_id </text>
<text text-anchor="start" x="226.5" y="-123" font-family="Arial ItalicMT" font-size="10.00" fill="#999999">integer (8) FK</text>
<text text-anchor="start" x="189.5" y="-110" font-family="ArialMT" font-size="10.00">id </text>
<text text-anchor="start" x="200.5" y="-110" font-family="Arial ItalicMT" font-size="10.00" fill="#999999">integer (8) PK</text>
</g>
<!-- m_Child&#45;&gt;m_PlacementNeed -->
<g id="edge5" class="edge">
<title>m_Child&#45;&gt;m_PlacementNeed</title>
<path fill="none" stroke="black" d="M250.56,-205.82C251.3,-191.4 252.29,-172.01 253.1,-156.31"/>
</g>
<!-- m_DiaryEntry -->
<g id="node2" class="node">
<title>m_DiaryEntry</title>
<path fill="none" stroke="black" d="M16.5,-0.5C16.5,-0.5 136.5,-0.5 136.5,-0.5 142.5,-0.5 148.5,-6.5 148.5,-12.5 148.5,-12.5 148.5,-44.5 148.5,-44.5 148.5,-50.5 142.5,-56.5 136.5,-56.5 136.5,-56.5 16.5,-56.5 16.5,-56.5 10.5,-56.5 4.5,-50.5 4.5,-44.5 4.5,-44.5 4.5,-12.5 4.5,-12.5 4.5,-6.5 10.5,-0.5 16.5,-0.5"/>
<text text-anchor="start" x="48.5" y="-43.7" font-family="Arial BoldMT" font-size="11.00">DiaryEntry</text>
<polyline fill="none" stroke="black" points="4.5,-36.5 148.5,-36.5 "/>
<text text-anchor="start" x="11.5" y="-23.5" font-family="ArialMT" font-size="10.00">id </text>
<text text-anchor="start" x="22.5" y="-23.5" font-family="Arial ItalicMT" font-size="10.00" fill="#999999">integer (8) PK</text>
<text text-anchor="start" x="11.5" y="-10.5" font-family="ArialMT" font-size="10.00">placement_id </text>
<text text-anchor="start" x="72.5" y="-10.5" font-family="Arial ItalicMT" font-size="10.00" fill="#999999">integer (8) ∗ FK</text>
</g>
<!-- m_FosterParent&#45;&gt;m_DiaryEntry -->
<g id="edge8" class="edge">
<title>m_FosterParent&#45;&gt;m_DiaryEntry</title>
<path fill="none" stroke="black" stroke-dasharray="1,5" d="M148.59,-202.81C153.28,-201.47 157.95,-200.18 162.5,-199 240.61,-178.68 289.4,-225.47 340.5,-163 360.2,-138.92 359.76,-117.44 340.5,-93 317.99,-64.43 226.68,-47.23 157.7,-38.07"/>
<polygon fill="black" stroke="black" points="157.89,-34.92 148.56,-36.89 157.08,-41.17 157.89,-34.92"/>
</g>
<!-- m_FosterParent&#45;&gt;m_Placement -->
<g id="edge7" class="edge">
<title>m_FosterParent&#45;&gt;m_Placement</title>
<path fill="none" stroke="black" d="M76.5,-199.34C76.5,-190.8 76.5,-181.16 76.5,-171.81"/>
<polygon fill="black" stroke="black" points="79.65,-171.62 76.5,-162.62 73.35,-171.62 79.65,-171.62"/>
</g>
<!-- m_Matchmaker -->
<g id="node4" class="node">
<title>m_Matchmaker</title>
<path fill="none" stroke="black" d="M362.5,-199.5C362.5,-199.5 482.5,-199.5 482.5,-199.5 488.5,-199.5 494.5,-205.5 494.5,-211.5 494.5,-211.5 494.5,-243.5 494.5,-243.5 494.5,-249.5 488.5,-255.5 482.5,-255.5 482.5,-255.5 362.5,-255.5 362.5,-255.5 356.5,-255.5 350.5,-249.5 350.5,-243.5 350.5,-243.5 350.5,-211.5 350.5,-211.5 350.5,-205.5 356.5,-199.5 362.5,-199.5"/>
<text text-anchor="start" x="390.5" y="-242.7" font-family="Arial BoldMT" font-size="11.00">Matchmaker</text>
<polyline fill="none" stroke="black" points="350.5,-235.5 494.5,-235.5 "/>
<text text-anchor="start" x="357.5" y="-222.5" font-family="ArialMT" font-size="10.00">id </text>
<text text-anchor="start" x="368.5" y="-222.5" font-family="Arial ItalicMT" font-size="10.00" fill="#999999">integer (8) PK</text>
<text text-anchor="start" x="357.5" y="-209.5" font-family="ArialMT" font-size="10.00">user_id </text>
<text text-anchor="start" x="392.5" y="-209.5" font-family="Arial ItalicMT" font-size="10.00" fill="#999999">integer (8) ∗ FK</text>
</g>
<!-- m_Placement&#45;&gt;m_DiaryEntry -->
<g id="edge6" class="edge">
<title>m_Placement&#45;&gt;m_DiaryEntry</title>
<path fill="none" stroke="black" d="M76.5,-93.45C76.5,-84.53 76.5,-74.87 76.5,-65.82"/>
<polygon fill="black" stroke="black" points="79.65,-65.66 76.5,-56.66 73.35,-65.66 79.65,-65.66"/>
</g>
<!-- m_User -->
<g id="node7" class="node">
<title>m_User</title>
<path fill="none" stroke="black" d="M189.5,-292.5C189.5,-292.5 309.5,-292.5 309.5,-292.5 315.5,-292.5 321.5,-298.5 321.5,-304.5 321.5,-304.5 321.5,-323.5 321.5,-323.5 321.5,-329.5 315.5,-335.5 309.5,-335.5 309.5,-335.5 189.5,-335.5 189.5,-335.5 183.5,-335.5 177.5,-329.5 177.5,-323.5 177.5,-323.5 177.5,-304.5 177.5,-304.5 177.5,-298.5 183.5,-292.5 189.5,-292.5"/>
<text text-anchor="start" x="235.5" y="-322.7" font-family="Arial BoldMT" font-size="11.00">User</text>
<polyline fill="none" stroke="black" points="177.5,-315.5 321.5,-315.5 "/>
<text text-anchor="start" x="184.5" y="-302" font-family="ArialMT" font-size="10.00">id </text>
<text text-anchor="start" x="195.5" y="-302" font-family="Arial ItalicMT" font-size="10.00" fill="#999999">integer (8) PK</text>
</g>
<!-- m_User&#45;&gt;m_FosterParent -->
<g id="edge1" class="edge">
<title>m_User&#45;&gt;m_FosterParent</title>
<path fill="none" stroke="black" d="M207.18,-292.33C184.47,-281.24 156.21,-267.43 131.79,-255.5"/>
</g>
<!-- m_User&#45;&gt;m_Matchmaker -->
<g id="edge2" class="edge">
<title>m_User&#45;&gt;m_Matchmaker</title>
<path fill="none" stroke="black" d="M291.82,-292.33C314.53,-281.24 342.79,-267.43 367.21,-255.5"/>
</g>
</g>
</svg>
