<?xml version="1.0" encoding="UTF-8" standalone="no"?>
<!DOCTYPE svg PUBLIC "-//W3C//DTD SVG 1.1//EN"
 "http://www.w3.org/Graphics/SVG/1.1/DTD/svg11.dtd">
<!-- Generated by graphviz version 2.44.1 (20200629.0846)
 -->
<!-- Title: ChildrensSocialCarePlacement Pages: 1 -->
<svg width="548pt" height="432pt"
 viewBox="0.00 0.00 547.60 431.60" xmlns="http://www.w3.org/2000/svg" xmlns:xlink="http://www.w3.org/1999/xlink">
<g id="graph0" class="graph" transform="scale(1 1) rotate(0) translate(28.8 402.8)">
<title>ChildrensSocialCarePlacement</title>
<polygon fill="white" stroke="transparent" points="-28.8,28.8 -28.8,-402.8 518.8,-402.8 518.8,28.8 -28.8,28.8"/>
<!-- m_Child -->
<g id="node1" class="node">
<title>m_Child</title>
<path fill="none" stroke="black" d="M12,-206C12,-206 132,-206 132,-206 138,-206 144,-212 144,-218 144,-218 144,-237 144,-237 144,-243 138,-249 132,-249 132,-249 12,-249 12,-249 6,-249 0,-243 0,-237 0,-237 0,-218 0,-218 0,-212 6,-206 12,-206"/>
<text text-anchor="start" x="57.5" y="-236.2" font-family="Arial BoldMT" font-size="11.00">Child</text>
<polyline fill="none" stroke="black" points="0,-229 144,-229 "/>
<text text-anchor="start" x="7" y="-215.5" font-family="ArialMT" font-size="10.00">id </text>
<text text-anchor="start" x="18" y="-215.5" font-family="Arial ItalicMT" font-size="10.00" fill="#999999">integer (8) PK</text>
</g>
<!-- m_FosterParent -->
<g id="node3" class="node">
<title>m_FosterParent</title>
<path fill="none" stroke="black" d="M185,-199.5C185,-199.5 305,-199.5 305,-199.5 311,-199.5 317,-205.5 317,-211.5 317,-211.5 317,-243.5 317,-243.5 317,-249.5 311,-255.5 305,-255.5 305,-255.5 185,-255.5 185,-255.5 179,-255.5 173,-249.5 173,-243.5 173,-243.5 173,-211.5 173,-211.5 173,-205.5 179,-199.5 185,-199.5"/>
<text text-anchor="start" x="211" y="-242.7" font-family="Arial BoldMT" font-size="11.00">FosterParent</text>
<polyline fill="none" stroke="black" points="173,-235.5 317,-235.5 "/>
<text text-anchor="start" x="180" y="-222.5" font-family="ArialMT" font-size="10.00">id </text>
<text text-anchor="start" x="191" y="-222.5" font-family="Arial ItalicMT" font-size="10.00" fill="#999999">integer (8) PK</text>
<text text-anchor="start" x="180" y="-209.5" font-family="ArialMT" font-size="10.00">user_id </text>
<text text-anchor="start" x="215" y="-209.5" font-family="Arial ItalicMT" font-size="10.00" fill="#999999">integer (8) ∗ FK</text>
</g>
<!-- m_Placement -->
<g id="node5" class="node">
<title>m_Placement</title>
<path fill="none" stroke="black" d="M93.5,-93.5C93.5,-93.5 222.5,-93.5 222.5,-93.5 228.5,-93.5 234.5,-99.5 234.5,-105.5 234.5,-105.5 234.5,-150.5 234.5,-150.5 234.5,-156.5 228.5,-162.5 222.5,-162.5 222.5,-162.5 93.5,-162.5 93.5,-162.5 87.5,-162.5 81.5,-156.5 81.5,-150.5 81.5,-150.5 81.5,-105.5 81.5,-105.5 81.5,-99.5 87.5,-93.5 93.5,-93.5"/>
<text text-anchor="start" x="130" y="-149.7" font-family="Arial BoldMT" font-size="11.00">Placement</text>
<polyline fill="none" stroke="black" points="81.5,-142.5 234.5,-142.5 "/>
<text text-anchor="start" x="89" y="-129" font-family="ArialMT" font-size="10.00">child_id </text>
<text text-anchor="start" x="126" y="-129" font-family="Arial ItalicMT" font-size="10.00" fill="#999999">integer (8) ∗ FK</text>
<text text-anchor="start" x="89" y="-116" font-family="ArialMT" font-size="10.00">foster_parent_id </text>
<text text-anchor="start" x="162" y="-116" font-family="Arial ItalicMT" font-size="10.00" fill="#999999">integer (8) ∗ FK</text>
<text text-anchor="start" x="89" y="-103" font-family="ArialMT" font-size="10.00">id </text>
<text text-anchor="start" x="100" y="-103" font-family="Arial ItalicMT" font-size="10.00" fill="#999999">integer (8) PK</text>
</g>
<!-- m_Child&#45;&gt;m_Placement -->
<g id="edge3" class="edge">
<title>m_Child&#45;&gt;m_Placement</title>
<path fill="none" stroke="black" d="M90.24,-205.82C99.56,-195.26 111.23,-182.02 122.25,-169.53"/>
<polygon fill="black" stroke="black" points="124.69,-171.52 128.28,-162.69 119.97,-167.36 124.69,-171.52"/>
</g>
<!-- m_DiaryEntry -->
<g id="node2" class="node">
<title>m_DiaryEntry</title>
<path fill="none" stroke="black" d="M98,-0.5C98,-0.5 218,-0.5 218,-0.5 224,-0.5 230,-6.5 230,-12.5 230,-12.5 230,-44.5 230,-44.5 230,-50.5 224,-56.5 218,-56.5 218,-56.5 98,-56.5 98,-56.5 92,-56.5 86,-50.5 86,-44.5 86,-44.5 86,-12.5 86,-12.5 86,-6.5 92,-0.5 98,-0.5"/>
<text text-anchor="start" x="130" y="-43.7" font-family="Arial BoldMT" font-size="11.00">DiaryEntry</text>
<polyline fill="none" stroke="black" points="86,-36.5 230,-36.5 "/>
<text text-anchor="start" x="93" y="-23.5" font-family="ArialMT" font-size="10.00">id </text>
<text text-anchor="start" x="104" y="-23.5" font-family="Arial ItalicMT" font-size="10.00" fill="#999999">integer (8) PK</text>
<text text-anchor="start" x="93" y="-10.5" font-family="ArialMT" font-size="10.00">placement_id </text>
<text text-anchor="start" x="154" y="-10.5" font-family="Arial ItalicMT" font-size="10.00" fill="#999999">integer (8) ∗ FK</text>
</g>
<!-- m_FosterParent&#45;&gt;m_Placement -->
<g id="edge6" class="edge">
<title>m_FosterParent&#45;&gt;m_Placement</title>
<path fill="none" stroke="black" d="M220.77,-199.34C212.51,-190.09 203.1,-179.55 194.12,-169.48"/>
<polygon fill="black" stroke="black" points="196.34,-167.23 188,-162.62 191.64,-171.43 196.34,-167.23"/>
</g>
<!-- m_Matchmaker -->
<g id="node4" class="node">
<title>m_Matchmaker</title>
<path fill="none" stroke="black" d="M358,-199.5C358,-199.5 478,-199.5 478,-199.5 484,-199.5 490,-205.5 490,-211.5 490,-211.5 490,-243.5 490,-243.5 490,-249.5 484,-255.5 478,-255.5 478,-255.5 358,-255.5 358,-255.5 352,-255.5 346,-249.5 346,-243.5 346,-243.5 346,-211.5 346,-211.5 346,-205.5 352,-199.5 358,-199.5"/>
<text text-anchor="start" x="386" y="-242.7" font-family="Arial BoldMT" font-size="11.00">Matchmaker</text>
<polyline fill="none" stroke="black" points="346,-235.5 490,-235.5 "/>
<text text-anchor="start" x="353" y="-222.5" font-family="ArialMT" font-size="10.00">id </text>
<text text-anchor="start" x="364" y="-222.5" font-family="Arial ItalicMT" font-size="10.00" fill="#999999">integer (8) PK</text>
<text text-anchor="start" x="353" y="-209.5" font-family="ArialMT" font-size="10.00">user_id </text>
<text text-anchor="start" x="388" y="-209.5" font-family="Arial ItalicMT" font-size="10.00" fill="#999999">integer (8) ∗ FK</text>
</g>
<!-- m_Placement&#45;&gt;m_DiaryEntry -->
<g id="edge5" class="edge">
<title>m_Placement&#45;&gt;m_DiaryEntry</title>
<path fill="none" stroke="black" d="M158,-93.45C158,-84.53 158,-74.87 158,-65.82"/>
<polygon fill="black" stroke="black" points="161.15,-65.66 158,-56.66 154.85,-65.66 161.15,-65.66"/>
</g>
<!-- m_User -->
<g id="node6" class="node">
<title>m_User</title>
<path fill="none" stroke="black" d="M271,-292.5C271,-292.5 391,-292.5 391,-292.5 397,-292.5 403,-298.5 403,-304.5 403,-304.5 403,-323.5 403,-323.5 403,-329.5 397,-335.5 391,-335.5 391,-335.5 271,-335.5 271,-335.5 265,-335.5 259,-329.5 259,-323.5 259,-323.5 259,-304.5 259,-304.5 259,-298.5 265,-292.5 271,-292.5"/>
<text text-anchor="start" x="317" y="-322.7" font-family="Arial BoldMT" font-size="11.00">User</text>
<polyline fill="none" stroke="black" points="259,-315.5 403,-315.5 "/>
<text text-anchor="start" x="266" y="-302" font-family="ArialMT" font-size="10.00">id </text>
<text text-anchor="start" x="277" y="-302" font-family="Arial ItalicMT" font-size="10.00" fill="#999999">integer (8) PK</text>
</g>
<!-- m_User&#45;&gt;m_FosterParent -->
<g id="edge1" class="edge">
<title>m_User&#45;&gt;m_FosterParent</title>
<path fill="none" stroke="black" d="M309.74,-292.11C298.5,-281.07 284.57,-267.38 272.51,-255.53"/>
</g>
<!-- m_User&#45;&gt;m_Matchmaker -->
<g id="edge2" class="edge">
<title>m_User&#45;&gt;m_Matchmaker</title>
<path fill="none" stroke="black" d="M352.51,-292.11C363.88,-281.07 377.97,-267.38 390.17,-255.53"/>
</g>
</g>
</svg>
