<?xml version="1.0" encoding="UTF-8" standalone="no"?>
<!DOCTYPE svg PUBLIC "-//W3C//DTD SVG 1.1//EN"
 "http://www.w3.org/Graphics/SVG/1.1/DTD/svg11.dtd">
<!-- Generated by graphviz version 2.44.1 (20200629.0846)
 -->
<!-- Title: ChildrensSocialCarePlacement Pages: 1 -->
<svg width="599pt" height="432pt"
 viewBox="0.00 0.00 599.10 431.60" xmlns="http://www.w3.org/2000/svg" xmlns:xlink="http://www.w3.org/1999/xlink">
<g id="graph0" class="graph" transform="scale(1 1) rotate(0) translate(28.8 402.8)">
<title>ChildrensSocialCarePlacement</title>
<polygon fill="white" stroke="transparent" points="-28.8,28.8 -28.8,-402.8 570.3,-402.8 570.3,28.8 -28.8,28.8"/>
<!-- m_Child -->
<g id="node1" class="node">
<title>m_Child</title>
<path fill="none" stroke="black" d="M385.5,-292.5C385.5,-292.5 505.5,-292.5 505.5,-292.5 511.5,-292.5 517.5,-298.5 517.5,-304.5 517.5,-304.5 517.5,-323.5 517.5,-323.5 517.5,-329.5 511.5,-335.5 505.5,-335.5 505.5,-335.5 385.5,-335.5 385.5,-335.5 379.5,-335.5 373.5,-329.5 373.5,-323.5 373.5,-323.5 373.5,-304.5 373.5,-304.5 373.5,-298.5 379.5,-292.5 385.5,-292.5"/>
<text text-anchor="start" x="431" y="-322.7" font-family="Arial BoldMT" font-size="11.00">Child</text>
<polyline fill="none" stroke="black" points="373.5,-315.5 517.5,-315.5 "/>
<text text-anchor="start" x="380.5" y="-302" font-family="ArialMT" font-size="10.00">id </text>
<text text-anchor="start" x="391.5" y="-302" font-family="Arial ItalicMT" font-size="10.00" fill="#999999">integer (8) PK</text>
</g>
<!-- m_PlacementNeed -->
<g id="node6" class="node">
<title>m_PlacementNeed</title>
<path fill="none" stroke="black" d="M385.5,-199.5C385.5,-199.5 505.5,-199.5 505.5,-199.5 511.5,-199.5 517.5,-205.5 517.5,-211.5 517.5,-211.5 517.5,-243.5 517.5,-243.5 517.5,-249.5 511.5,-255.5 505.5,-255.5 505.5,-255.5 385.5,-255.5 385.5,-255.5 379.5,-255.5 373.5,-249.5 373.5,-243.5 373.5,-243.5 373.5,-211.5 373.5,-211.5 373.5,-205.5 379.5,-199.5 385.5,-199.5"/>
<text text-anchor="start" x="404.5" y="-242.7" font-family="Arial BoldMT" font-size="11.00">PlacementNeed</text>
<polyline fill="none" stroke="black" points="373.5,-235.5 517.5,-235.5 "/>
<text text-anchor="start" x="380.5" y="-222.5" font-family="ArialMT" font-size="10.00">child_id </text>
<text text-anchor="start" x="417.5" y="-222.5" font-family="Arial ItalicMT" font-size="10.00" fill="#999999">integer (8) FK</text>
<text text-anchor="start" x="380.5" y="-209.5" font-family="ArialMT" font-size="10.00">id </text>
<text text-anchor="start" x="391.5" y="-209.5" font-family="Arial ItalicMT" font-size="10.00" fill="#999999">integer (8) PK</text>
</g>
<!-- m_Child&#45;&gt;m_PlacementNeed -->
<g id="edge3" class="edge">
<title>m_Child&#45;&gt;m_PlacementNeed</title>
<path fill="none" stroke="black" d="M445.5,-292.11C445.5,-281.07 445.5,-267.38 445.5,-255.53"/>
</g>
<!-- m_DiaryEntry -->
<g id="node2" class="node">
<title>m_DiaryEntry</title>
<path fill="none" stroke="black" d="M397.5,-0.5C397.5,-0.5 517.5,-0.5 517.5,-0.5 523.5,-0.5 529.5,-6.5 529.5,-12.5 529.5,-12.5 529.5,-44.5 529.5,-44.5 529.5,-50.5 523.5,-56.5 517.5,-56.5 517.5,-56.5 397.5,-56.5 397.5,-56.5 391.5,-56.5 385.5,-50.5 385.5,-44.5 385.5,-44.5 385.5,-12.5 385.5,-12.5 385.5,-6.5 391.5,-0.5 397.5,-0.5"/>
<text text-anchor="start" x="429.5" y="-43.7" font-family="Arial BoldMT" font-size="11.00">DiaryEntry</text>
<polyline fill="none" stroke="black" points="385.5,-36.5 529.5,-36.5 "/>
<text text-anchor="start" x="392.5" y="-23.5" font-family="ArialMT" font-size="10.00">id </text>
<text text-anchor="start" x="403.5" y="-23.5" font-family="Arial ItalicMT" font-size="10.00" fill="#999999">integer (8) PK</text>
<text text-anchor="start" x="392.5" y="-10.5" font-family="ArialMT" font-size="10.00">placement_id </text>
<text text-anchor="start" x="453.5" y="-10.5" font-family="Arial ItalicMT" font-size="10.00" fill="#999999">integer (8) ∗ FK</text>
</g>
<!-- m_FosterParent -->
<g id="node3" class="node">
<title>m_FosterParent</title>
<path fill="none" stroke="black" d="M200.5,-199.5C200.5,-199.5 320.5,-199.5 320.5,-199.5 326.5,-199.5 332.5,-205.5 332.5,-211.5 332.5,-211.5 332.5,-243.5 332.5,-243.5 332.5,-249.5 326.5,-255.5 320.5,-255.5 320.5,-255.5 200.5,-255.5 200.5,-255.5 194.5,-255.5 188.5,-249.5 188.5,-243.5 188.5,-243.5 188.5,-211.5 188.5,-211.5 188.5,-205.5 194.5,-199.5 200.5,-199.5"/>
<text text-anchor="start" x="226.5" y="-242.7" font-family="Arial BoldMT" font-size="11.00">FosterParent</text>
<polyline fill="none" stroke="black" points="188.5,-235.5 332.5,-235.5 "/>
<text text-anchor="start" x="195.5" y="-222.5" font-family="ArialMT" font-size="10.00">id </text>
<text text-anchor="start" x="206.5" y="-222.5" font-family="Arial ItalicMT" font-size="10.00" fill="#999999">integer (8) PK</text>
<text text-anchor="start" x="195.5" y="-209.5" font-family="ArialMT" font-size="10.00">user_id </text>
<text text-anchor="start" x="230.5" y="-209.5" font-family="Arial ItalicMT" font-size="10.00" fill="#999999">integer (8) ∗ FK</text>
</g>
<!-- m_Placement -->
<g id="node5" class="node">
<title>m_Placement</title>
<path fill="none" stroke="black" d="M385.5,-93.5C385.5,-93.5 529.5,-93.5 529.5,-93.5 535.5,-93.5 541.5,-99.5 541.5,-105.5 541.5,-105.5 541.5,-150.5 541.5,-150.5 541.5,-156.5 535.5,-162.5 529.5,-162.5 529.5,-162.5 385.5,-162.5 385.5,-162.5 379.5,-162.5 373.5,-156.5 373.5,-150.5 373.5,-150.5 373.5,-105.5 373.5,-105.5 373.5,-99.5 379.5,-93.5 385.5,-93.5"/>
<text text-anchor="start" x="429.5" y="-149.7" font-family="Arial BoldMT" font-size="11.00">Placement</text>
<polyline fill="none" stroke="black" points="373.5,-142.5 541.5,-142.5 "/>
<text text-anchor="start" x="380.5" y="-129" font-family="ArialMT" font-size="10.00">foster_parent_id </text>
<text text-anchor="start" x="453.5" y="-129" font-family="Arial ItalicMT" font-size="10.00" fill="#999999">integer (8) ∗ FK</text>
<text text-anchor="start" x="380.5" y="-116" font-family="ArialMT" font-size="10.00">id </text>
<text text-anchor="start" x="391.5" y="-116" font-family="Arial ItalicMT" font-size="10.00" fill="#999999">integer (8) PK</text>
<text text-anchor="start" x="380.5" y="-103" font-family="ArialMT" font-size="10.00">placement_need_id </text>
<text text-anchor="start" x="468.5" y="-103" font-family="Arial ItalicMT" font-size="10.00" fill="#999999">integer (8) ∗ FK</text>
</g>
<!-- m_FosterParent&#45;&gt;m_Placement -->
<g id="edge5" class="edge">
<title>m_FosterParent&#45;&gt;m_Placement</title>
<path fill="none" stroke="black" d="M315.11,-199.47C335.7,-189.28 359.5,-177.5 381.68,-166.52"/>
<polygon fill="black" stroke="black" points="383.1,-169.34 389.77,-162.52 380.31,-163.69 383.1,-169.34"/>
</g>
<!-- m_PlacementSuitability -->
<g id="node7" class="node">
<title>m_PlacementSuitability</title>
<path fill="none" stroke="black" d="M12,-100C12,-100 135,-100 135,-100 141,-100 147,-106 147,-112 147,-112 147,-144 147,-144 147,-150 141,-156 135,-156 135,-156 12,-156 12,-156 6,-156 0,-150 0,-144 0,-144 0,-112 0,-112 0,-106 6,-100 12,-100"/>
<text text-anchor="start" x="23" y="-143.2" font-family="Arial BoldMT" font-size="11.00">PlacementSuitability</text>
<polyline fill="none" stroke="black" points="0,-136 147,-136 "/>
<text text-anchor="start" x="7.5" y="-123" font-family="ArialMT" font-size="10.00">foster_parent_id </text>
<text text-anchor="start" x="80.5" y="-123" font-family="Arial ItalicMT" font-size="10.00" fill="#999999">integer (8) FK</text>
<text text-anchor="start" x="7.5" y="-110" font-family="ArialMT" font-size="10.00">id </text>
<text text-anchor="start" x="18.5" y="-110" font-family="Arial ItalicMT" font-size="10.00" fill="#999999">integer (8) PK</text>
</g>
<!-- m_FosterParent&#45;&gt;m_PlacementSuitability -->
<g id="edge6" class="edge">
<title>m_FosterParent&#45;&gt;m_PlacementSuitability</title>
<path fill="none" stroke="black" d="M208.41,-199.34C182.47,-185.82 151.21,-169.52 125.31,-156.01"/>
</g>
<!-- m_Shortlist -->
<g id="node8" class="node">
<title>m_Shortlist</title>
<path fill="none" stroke="black" d="M188.5,-100C188.5,-100 332.5,-100 332.5,-100 338.5,-100 344.5,-106 344.5,-112 344.5,-112 344.5,-144 344.5,-144 344.5,-150 338.5,-156 332.5,-156 332.5,-156 188.5,-156 188.5,-156 182.5,-156 176.5,-150 176.5,-144 176.5,-144 176.5,-112 176.5,-112 176.5,-106 182.5,-100 188.5,-100"/>
<text text-anchor="start" x="238.5" y="-143.2" font-family="Arial BoldMT" font-size="11.00">Shortlist</text>
<polyline fill="none" stroke="black" points="176.5,-136 344.5,-136 "/>
<text text-anchor="start" x="183.5" y="-123" font-family="ArialMT" font-size="10.00">id </text>
<text text-anchor="start" x="194.5" y="-123" font-family="Arial ItalicMT" font-size="10.00" fill="#999999">integer (8) PK</text>
<text text-anchor="start" x="183.5" y="-110" font-family="ArialMT" font-size="10.00">placement_need_id </text>
<text text-anchor="start" x="271.5" y="-110" font-family="Arial ItalicMT" font-size="10.00" fill="#999999">integer (8) ∗ FK</text>
</g>
<!-- m_FosterParent&#45;&gt;m_Shortlist -->
<g id="edge7" class="edge">
<title>m_FosterParent&#45;&gt;m_Shortlist</title>
<path fill="none" stroke="black" d="M260.5,-190.13C260.5,-182 260.5,-173.38 260.5,-165.26"/>
<polygon fill="black" stroke="black" points="257.35,-190.34 260.5,-199.34 263.65,-190.34 257.35,-190.34"/>
<polygon fill="black" stroke="black" points="263.65,-165.01 260.5,-156.01 257.35,-165.01 263.65,-165.01"/>
</g>
<!-- m_Matchmaker -->
<g id="node4" class="node">
<title>m_Matchmaker</title>
<path fill="none" stroke="black" d="M27.5,-199.5C27.5,-199.5 147.5,-199.5 147.5,-199.5 153.5,-199.5 159.5,-205.5 159.5,-211.5 159.5,-211.5 159.5,-243.5 159.5,-243.5 159.5,-249.5 153.5,-255.5 147.5,-255.5 147.5,-255.5 27.5,-255.5 27.5,-255.5 21.5,-255.5 15.5,-249.5 15.5,-243.5 15.5,-243.5 15.5,-211.5 15.5,-211.5 15.5,-205.5 21.5,-199.5 27.5,-199.5"/>
<text text-anchor="start" x="55.5" y="-242.7" font-family="Arial BoldMT" font-size="11.00">Matchmaker</text>
<polyline fill="none" stroke="black" points="15.5,-235.5 159.5,-235.5 "/>
<text text-anchor="start" x="22.5" y="-222.5" font-family="ArialMT" font-size="10.00">id </text>
<text text-anchor="start" x="33.5" y="-222.5" font-family="Arial ItalicMT" font-size="10.00" fill="#999999">integer (8) PK</text>
<text text-anchor="start" x="22.5" y="-209.5" font-family="ArialMT" font-size="10.00">user_id </text>
<text text-anchor="start" x="57.5" y="-209.5" font-family="Arial ItalicMT" font-size="10.00" fill="#999999">integer (8) ∗ FK</text>
</g>
<!-- m_Placement&#45;&gt;m_DiaryEntry -->
<g id="edge4" class="edge">
<title>m_Placement&#45;&gt;m_DiaryEntry</title>
<path fill="none" stroke="black" d="M457.5,-93.45C457.5,-84.53 457.5,-74.87 457.5,-65.82"/>
<polygon fill="black" stroke="black" points="460.65,-65.66 457.5,-56.66 454.35,-65.66 460.65,-65.66"/>
</g>
<!-- m_PlacementNeed&#45;&gt;m_Placement -->
<g id="edge8" class="edge">
<title>m_PlacementNeed&#45;&gt;m_Placement</title>
<path fill="none" stroke="black" d="M448.84,-199.34C450.24,-187.96 451.89,-174.61 453.36,-162.62"/>
</g>
<!-- m_PlacementNeed&#45;&gt;m_Shortlist -->
<g id="edge9" class="edge">
<title>m_PlacementNeed&#45;&gt;m_Shortlist</title>
<path fill="none" stroke="black" d="M393.97,-199.34C368.31,-185.82 337.38,-169.52 311.76,-156.01"/>
</g>
<!-- m_User -->
<g id="node9" class="node">
<title>m_User</title>
<path fill="none" stroke="black" d="M126.5,-292.5C126.5,-292.5 246.5,-292.5 246.5,-292.5 252.5,-292.5 258.5,-298.5 258.5,-304.5 258.5,-304.5 258.5,-323.5 258.5,-323.5 258.5,-329.5 252.5,-335.5 246.5,-335.5 246.5,-335.5 126.5,-335.5 126.5,-335.5 120.5,-335.5 114.5,-329.5 114.5,-323.5 114.5,-323.5 114.5,-304.5 114.5,-304.5 114.5,-298.5 120.5,-292.5 126.5,-292.5"/>
<text text-anchor="start" x="172.5" y="-322.7" font-family="Arial BoldMT" font-size="11.00">User</text>
<polyline fill="none" stroke="black" points="114.5,-315.5 258.5,-315.5 "/>
<text text-anchor="start" x="121.5" y="-302" font-family="ArialMT" font-size="10.00">id </text>
<text text-anchor="start" x="132.5" y="-302" font-family="Arial ItalicMT" font-size="10.00" fill="#999999">integer (8) PK</text>
</g>
<!-- m_User&#45;&gt;m_FosterParent -->
<g id="edge1" class="edge">
<title>m_User&#45;&gt;m_FosterParent</title>
<path fill="none" stroke="black" d="M204.79,-292.11C214.46,-281.07 226.45,-267.38 236.83,-255.53"/>
</g>
<!-- m_User&#45;&gt;m_Matchmaker -->
<g id="edge2" class="edge">
<title>m_User&#45;&gt;m_Matchmaker</title>
<path fill="none" stroke="black" d="M162.28,-292.33C149.34,-281.29 133.26,-267.56 119.32,-255.66"/>
</g>
</g>
</svg>
