<?xml version="1.0" encoding="UTF-8" standalone="no"?>
<!DOCTYPE svg PUBLIC "-//W3C//DTD SVG 1.1//EN"
 "http://www.w3.org/Graphics/SVG/1.1/DTD/svg11.dtd">
<!-- Generated by graphviz version 2.44.1 (20200629.0846)
 -->
<!-- Title: ChildrensSocialCarePlacement Pages: 1 -->
<svg width="648pt" height="432pt"
 viewBox="0.00 0.00 648.36 431.60" xmlns="http://www.w3.org/2000/svg" xmlns:xlink="http://www.w3.org/1999/xlink">
<g id="graph0" class="graph" transform="scale(1 1) rotate(0) translate(28.8 402.8)">
<title>ChildrensSocialCarePlacement</title>
<polygon fill="white" stroke="transparent" points="-28.8,28.8 -28.8,-402.8 619.56,-402.8 619.56,28.8 -28.8,28.8"/>
<!-- m_Child -->
<g id="node1" class="node">
<title>m_Child</title>
<path fill="none" stroke="black" d="M126.76,-292.5C126.76,-292.5 246.76,-292.5 246.76,-292.5 252.76,-292.5 258.76,-298.5 258.76,-304.5 258.76,-304.5 258.76,-323.5 258.76,-323.5 258.76,-329.5 252.76,-335.5 246.76,-335.5 246.76,-335.5 126.76,-335.5 126.76,-335.5 120.76,-335.5 114.76,-329.5 114.76,-323.5 114.76,-323.5 114.76,-304.5 114.76,-304.5 114.76,-298.5 120.76,-292.5 126.76,-292.5"/>
<text text-anchor="start" x="172.26" y="-322.7" font-family="Arial BoldMT" font-size="11.00">Child</text>
<polyline fill="none" stroke="black" points="114.76,-315.5 258.76,-315.5 "/>
<text text-anchor="start" x="121.76" y="-302" font-family="ArialMT" font-size="10.00">id </text>
<text text-anchor="start" x="132.76" y="-302" font-family="Arial ItalicMT" font-size="10.00" fill="#999999">integer (8) PK</text>
</g>
<!-- m_FosterParent -->
<g id="node3" class="node">
<title>m_FosterParent</title>
<path fill="none" stroke="black" d="M285.76,-199.5C285.76,-199.5 405.76,-199.5 405.76,-199.5 411.76,-199.5 417.76,-205.5 417.76,-211.5 417.76,-211.5 417.76,-243.5 417.76,-243.5 417.76,-249.5 411.76,-255.5 405.76,-255.5 405.76,-255.5 285.76,-255.5 285.76,-255.5 279.76,-255.5 273.76,-249.5 273.76,-243.5 273.76,-243.5 273.76,-211.5 273.76,-211.5 273.76,-205.5 279.76,-199.5 285.76,-199.5"/>
<text text-anchor="start" x="311.76" y="-242.7" font-family="Arial BoldMT" font-size="11.00">FosterParent</text>
<polyline fill="none" stroke="black" points="273.76,-235.5 417.76,-235.5 "/>
<text text-anchor="start" x="280.76" y="-222.5" font-family="ArialMT" font-size="10.00">id </text>
<text text-anchor="start" x="291.76" y="-222.5" font-family="Arial ItalicMT" font-size="10.00" fill="#999999">integer (8) PK</text>
<text text-anchor="start" x="280.76" y="-209.5" font-family="ArialMT" font-size="10.00">user_id </text>
<text text-anchor="start" x="315.76" y="-209.5" font-family="Arial ItalicMT" font-size="10.00" fill="#999999">integer (8) ∗ FK</text>
</g>
<!-- m_Child&#45;&gt;m_FosterParent -->
<g id="edge4" class="edge">
<title>m_Child&#45;&gt;m_FosterParent</title>
<path fill="none" stroke="black" stroke-dasharray="1,5" d="M225.66,-292.33C244.08,-282.54 266.48,-270.63 286.93,-259.77"/>
<polygon fill="black" stroke="black" points="288.48,-262.51 294.95,-255.5 285.52,-256.95 288.48,-262.51"/>
</g>
<!-- m_Placement -->
<g id="node5" class="node">
<title>m_Placement</title>
<path fill="none" stroke="black" d="M239.26,-93.5C239.26,-93.5 368.26,-93.5 368.26,-93.5 374.26,-93.5 380.26,-99.5 380.26,-105.5 380.26,-105.5 380.26,-150.5 380.26,-150.5 380.26,-156.5 374.26,-162.5 368.26,-162.5 368.26,-162.5 239.26,-162.5 239.26,-162.5 233.26,-162.5 227.26,-156.5 227.26,-150.5 227.26,-150.5 227.26,-105.5 227.26,-105.5 227.26,-99.5 233.26,-93.5 239.26,-93.5"/>
<text text-anchor="start" x="275.76" y="-149.7" font-family="Arial BoldMT" font-size="11.00">Placement</text>
<polyline fill="none" stroke="black" points="227.26,-142.5 380.26,-142.5 "/>
<text text-anchor="start" x="234.76" y="-129" font-family="ArialMT" font-size="10.00">child_id </text>
<text text-anchor="start" x="271.76" y="-129" font-family="Arial ItalicMT" font-size="10.00" fill="#999999">integer (8) ∗ FK</text>
<text text-anchor="start" x="234.76" y="-116" font-family="ArialMT" font-size="10.00">foster_parent_id </text>
<text text-anchor="start" x="307.76" y="-116" font-family="Arial ItalicMT" font-size="10.00" fill="#999999">integer (8) ∗ FK</text>
<text text-anchor="start" x="234.76" y="-103" font-family="ArialMT" font-size="10.00">id </text>
<text text-anchor="start" x="245.76" y="-103" font-family="Arial ItalicMT" font-size="10.00" fill="#999999">integer (8) PK</text>
</g>
<!-- m_Child&#45;&gt;m_Placement -->
<g id="edge3" class="edge">
<title>m_Child&#45;&gt;m_Placement</title>
<path fill="none" stroke="black" d="M199.72,-292.37C214.1,-269.52 238.01,-231.57 258.76,-199 264.65,-189.77 270.99,-179.87 277.01,-170.5"/>
<polygon fill="black" stroke="black" points="279.75,-172.06 281.96,-162.79 274.45,-168.66 279.75,-172.06"/>
</g>
<!-- m_PlacementNeed -->
<g id="node6" class="node">
<title>m_PlacementNeed</title>
<path fill="none" stroke="black" d="M53.76,-199.5C53.76,-199.5 173.76,-199.5 173.76,-199.5 179.76,-199.5 185.76,-205.5 185.76,-211.5 185.76,-211.5 185.76,-243.5 185.76,-243.5 185.76,-249.5 179.76,-255.5 173.76,-255.5 173.76,-255.5 53.76,-255.5 53.76,-255.5 47.76,-255.5 41.76,-249.5 41.76,-243.5 41.76,-243.5 41.76,-211.5 41.76,-211.5 41.76,-205.5 47.76,-199.5 53.76,-199.5"/>
<text text-anchor="start" x="72.76" y="-242.7" font-family="Arial BoldMT" font-size="11.00">PlacementNeed</text>
<polyline fill="none" stroke="black" points="41.76,-235.5 185.76,-235.5 "/>
<text text-anchor="start" x="48.76" y="-222.5" font-family="ArialMT" font-size="10.00">child_id </text>
<text text-anchor="start" x="85.76" y="-222.5" font-family="Arial ItalicMT" font-size="10.00" fill="#999999">integer (8) FK</text>
<text text-anchor="start" x="48.76" y="-209.5" font-family="ArialMT" font-size="10.00">id </text>
<text text-anchor="start" x="59.76" y="-209.5" font-family="Arial ItalicMT" font-size="10.00" fill="#999999">integer (8) PK</text>
</g>
<!-- m_Child&#45;&gt;m_PlacementNeed -->
<g id="edge5" class="edge">
<title>m_Child&#45;&gt;m_PlacementNeed</title>
<path fill="none" stroke="black" d="M168.72,-292.11C159.18,-281.07 147.35,-267.38 137.12,-255.53"/>
</g>
<!-- m_DiaryEntry -->
<g id="node2" class="node">
<title>m_DiaryEntry</title>
<path fill="none" stroke="black" d="M243.76,-0.5C243.76,-0.5 363.76,-0.5 363.76,-0.5 369.76,-0.5 375.76,-6.5 375.76,-12.5 375.76,-12.5 375.76,-44.5 375.76,-44.5 375.76,-50.5 369.76,-56.5 363.76,-56.5 363.76,-56.5 243.76,-56.5 243.76,-56.5 237.76,-56.5 231.76,-50.5 231.76,-44.5 231.76,-44.5 231.76,-12.5 231.76,-12.5 231.76,-6.5 237.76,-0.5 243.76,-0.5"/>
<text text-anchor="start" x="275.76" y="-43.7" font-family="Arial BoldMT" font-size="11.00">DiaryEntry</text>
<polyline fill="none" stroke="black" points="231.76,-36.5 375.76,-36.5 "/>
<text text-anchor="start" x="238.76" y="-23.5" font-family="ArialMT" font-size="10.00">id </text>
<text text-anchor="start" x="249.76" y="-23.5" font-family="Arial ItalicMT" font-size="10.00" fill="#999999">integer (8) PK</text>
<text text-anchor="start" x="238.76" y="-10.5" font-family="ArialMT" font-size="10.00">placement_id </text>
<text text-anchor="start" x="299.76" y="-10.5" font-family="Arial ItalicMT" font-size="10.00" fill="#999999">integer (8) ∗ FK</text>
</g>
<!-- m_FosterParent&#45;&gt;m_DiaryEntry -->
<g id="edge8" class="edge">
<title>m_FosterParent&#45;&gt;m_DiaryEntry</title>
<path fill="none" stroke="black" stroke-dasharray="1,5" d="M273.67,-212.82C176.45,-194.34 15.28,-163.63 14.76,-163 -5.06,-139.02 -4.73,-117.24 14.76,-93 40.44,-61.07 146.32,-44.28 222.49,-36.15"/>
<polygon fill="black" stroke="black" points="223,-39.27 231.63,-35.21 222.35,-33 223,-39.27"/>
</g>
<!-- m_FosterParent&#45;&gt;m_Placement -->
<g id="edge7" class="edge">
<title>m_FosterParent&#45;&gt;m_Placement</title>
<path fill="none" stroke="black" d="M334.06,-199.34C330.27,-190.54 325.97,-180.56 321.83,-170.94"/>
<polygon fill="black" stroke="black" points="324.7,-169.64 318.24,-162.62 318.91,-172.13 324.7,-169.64"/>
</g>
<!-- m_PlacementSuitability -->
<g id="node7" class="node">
<title>m_PlacementSuitability</title>
<path fill="none" stroke="black" d="M421.26,-100C421.26,-100 544.26,-100 544.26,-100 550.26,-100 556.26,-106 556.26,-112 556.26,-112 556.26,-144 556.26,-144 556.26,-150 550.26,-156 544.26,-156 544.26,-156 421.26,-156 421.26,-156 415.26,-156 409.26,-150 409.26,-144 409.26,-144 409.26,-112 409.26,-112 409.26,-106 415.26,-100 421.26,-100"/>
<text text-anchor="start" x="432.26" y="-143.2" font-family="Arial BoldMT" font-size="11.00">PlacementSuitability</text>
<polyline fill="none" stroke="black" points="409.26,-136 556.26,-136 "/>
<text text-anchor="start" x="416.76" y="-123" font-family="ArialMT" font-size="10.00">foster_parent_id </text>
<text text-anchor="start" x="489.76" y="-123" font-family="Arial ItalicMT" font-size="10.00" fill="#999999">integer (8) FK</text>
<text text-anchor="start" x="416.76" y="-110" font-family="ArialMT" font-size="10.00">id </text>
<text text-anchor="start" x="427.76" y="-110" font-family="Arial ItalicMT" font-size="10.00" fill="#999999">integer (8) PK</text>
</g>
<!-- m_FosterParent&#45;&gt;m_PlacementSuitability -->
<g id="edge9" class="edge">
<title>m_FosterParent&#45;&gt;m_PlacementSuitability</title>
<path fill="none" stroke="black" d="M383.93,-199.34C402.93,-185.82 425.83,-169.52 444.81,-156.01"/>
</g>
<!-- m_Shortlist -->
<g id="node8" class="node">
<title>m_Shortlist</title>
<path fill="none" stroke="black" d="M41.76,-100C41.76,-100 185.76,-100 185.76,-100 191.76,-100 197.76,-106 197.76,-112 197.76,-112 197.76,-144 197.76,-144 197.76,-150 191.76,-156 185.76,-156 185.76,-156 41.76,-156 41.76,-156 35.76,-156 29.76,-150 29.76,-144 29.76,-144 29.76,-112 29.76,-112 29.76,-106 35.76,-100 41.76,-100"/>
<text text-anchor="start" x="91.76" y="-143.2" font-family="Arial BoldMT" font-size="11.00">Shortlist</text>
<polyline fill="none" stroke="black" points="29.76,-136 197.76,-136 "/>
<text text-anchor="start" x="36.76" y="-123" font-family="ArialMT" font-size="10.00">id </text>
<text text-anchor="start" x="47.76" y="-123" font-family="Arial ItalicMT" font-size="10.00" fill="#999999">integer (8) PK</text>
<text text-anchor="start" x="36.76" y="-110" font-family="ArialMT" font-size="10.00">placement_need_id </text>
<text text-anchor="start" x="124.76" y="-110" font-family="Arial ItalicMT" font-size="10.00" fill="#999999">integer (8) ∗ FK</text>
</g>
<!-- m_FosterParent&#45;&gt;m_Shortlist -->
<g id="edge10" class="edge">
<title>m_FosterParent&#45;&gt;m_Shortlist</title>
<path fill="none" stroke="black" d="M273.01,-195.92C245.48,-184.36 214.16,-171.19 186.62,-159.62"/>
<polygon fill="black" stroke="black" points="271.93,-198.89 281.45,-199.47 274.37,-193.08 271.93,-198.89"/>
<polygon fill="black" stroke="black" points="187.72,-156.67 178.21,-156.08 185.28,-162.47 187.72,-156.67"/>
</g>
<!-- m_Matchmaker -->
<g id="node4" class="node">
<title>m_Matchmaker</title>
<path fill="none" stroke="black" d="M458.76,-199.5C458.76,-199.5 578.76,-199.5 578.76,-199.5 584.76,-199.5 590.76,-205.5 590.76,-211.5 590.76,-211.5 590.76,-243.5 590.76,-243.5 590.76,-249.5 584.76,-255.5 578.76,-255.5 578.76,-255.5 458.76,-255.5 458.76,-255.5 452.76,-255.5 446.76,-249.5 446.76,-243.5 446.76,-243.5 446.76,-211.5 446.76,-211.5 446.76,-205.5 452.76,-199.5 458.76,-199.5"/>
<text text-anchor="start" x="486.76" y="-242.7" font-family="Arial BoldMT" font-size="11.00">Matchmaker</text>
<polyline fill="none" stroke="black" points="446.76,-235.5 590.76,-235.5 "/>
<text text-anchor="start" x="453.76" y="-222.5" font-family="ArialMT" font-size="10.00">id </text>
<text text-anchor="start" x="464.76" y="-222.5" font-family="Arial ItalicMT" font-size="10.00" fill="#999999">integer (8) PK</text>
<text text-anchor="start" x="453.76" y="-209.5" font-family="ArialMT" font-size="10.00">user_id </text>
<text text-anchor="start" x="488.76" y="-209.5" font-family="Arial ItalicMT" font-size="10.00" fill="#999999">integer (8) ∗ FK</text>
</g>
<!-- m_Placement&#45;&gt;m_DiaryEntry -->
<g id="edge6" class="edge">
<title>m_Placement&#45;&gt;m_DiaryEntry</title>
<path fill="none" stroke="black" d="M303.76,-93.45C303.76,-84.53 303.76,-74.87 303.76,-65.82"/>
<polygon fill="black" stroke="black" points="306.91,-65.66 303.76,-56.66 300.61,-65.66 306.91,-65.66"/>
</g>
<!-- m_PlacementNeed&#45;&gt;m_Shortlist -->
<g id="edge11" class="edge">
<title>m_PlacementNeed&#45;&gt;m_Shortlist</title>
<path fill="none" stroke="black" d="M113.76,-199.34C113.76,-185.82 113.76,-169.52 113.76,-156.01"/>
</g>
<!-- m_User -->
<g id="node9" class="node">
<title>m_User</title>
<path fill="none" stroke="black" d="M328.76,-292.5C328.76,-292.5 448.76,-292.5 448.76,-292.5 454.76,-292.5 460.76,-298.5 460.76,-304.5 460.76,-304.5 460.76,-323.5 460.76,-323.5 460.76,-329.5 454.76,-335.5 448.76,-335.5 448.76,-335.5 328.76,-335.5 328.76,-335.5 322.76,-335.5 316.76,-329.5 316.76,-323.5 316.76,-323.5 316.76,-304.5 316.76,-304.5 316.76,-298.5 322.76,-292.5 328.76,-292.5"/>
<text text-anchor="start" x="374.76" y="-322.7" font-family="Arial BoldMT" font-size="11.00">User</text>
<polyline fill="none" stroke="black" points="316.76,-315.5 460.76,-315.5 "/>
<text text-anchor="start" x="323.76" y="-302" font-family="ArialMT" font-size="10.00">id </text>
<text text-anchor="start" x="334.76" y="-302" font-family="Arial ItalicMT" font-size="10.00" fill="#999999">integer (8) PK</text>
</g>
<!-- m_User&#45;&gt;m_FosterParent -->
<g id="edge1" class="edge">
<title>m_User&#45;&gt;m_FosterParent</title>
<path fill="none" stroke="black" d="M378.13,-292.11C372.51,-281.07 365.55,-267.38 359.52,-255.53"/>
</g>
<!-- m_User&#45;&gt;m_Matchmaker -->
<g id="edge2" class="edge">
<title>m_User&#45;&gt;m_Matchmaker</title>
<path fill="none" stroke="black" d="M420.56,-292.33C437.55,-281.29 458.68,-267.56 476.97,-255.66"/>
</g>
</g>
</svg>
